<?xml version="1.0" standalone="no"?><!DOCTYPE svg PUBLIC "-//W3C//DTD SVG 1.1//EN" "http://www.w3.org/Graphics/SVG/1.1/DTD/svg11.dtd"><svg t="1607501985637" class="icon" viewBox="0 0 1024 1024" version="1.1" xmlns="http://www.w3.org/2000/svg" p-id="47526" xmlns:xlink="http://www.w3.org/1999/xlink" width="200" height="200"><defs><style type="text/css"></style></defs><path d="M800 149.333333A138.666667 138.666667 0 0 1 938.666667 288v448.128a138.666667 138.666667 0 0 1-138.666667 138.666667H224A138.666667 138.666667 0 0 1 85.333333 736.128V288.042667A138.666667 138.666667 0 0 1 224 149.333333h576z m0 64H224A74.666667 74.666667 0 0 0 149.333333 288v448.128c0 41.258667 33.450667 74.666667 74.666667 74.666667h576a74.666667 74.666667 0 0 0 74.666667-74.666667V288.042667A74.666667 74.666667 0 0 0 800 213.333333zM341.973333 378.581333c25.429333 0 43.477333 3.456 64.085334 13.354667a26.666667 26.666667 0 0 1-23.082667 48.085333c-12.8-6.144-23.04-8.106667-41.002667-8.106666-36.992 0-64.170667 33.962667-64.170666 79.872 0 45.952 27.221333 80.042667 64.170666 80.042666 18.261333 0 33.749333-7.68 41.813334-21.333333L384 569.770667v-31.36l-16.042667 0.042666a26.666667 26.666667 0 0 1-26.368-22.698666L341.333333 511.829333c0-13.397333 9.856-24.448 22.741334-26.368l3.925333-0.298666h42.752c13.397333 0 24.448 9.856 26.368 22.741333l0.298667 3.925333-0.085334 66.048-0.256 2.346667-0.896 3.84-0.853333 2.346667c-16.085333 37.973333-52.949333 58.709333-93.354667 58.709333-69.376 0-117.504-60.245333-117.504-133.376 0-73.045333 48.085333-133.205333 117.504-133.205333z m196.864 5.205334c13.397333 0 24.490667 9.856 26.368 22.741333l0.298667 3.925333v203.178667a26.666667 26.666667 0 0 1-53.034667 3.925333l-0.298666-3.925333V410.453333c0-14.72 11.946667-26.666667 26.666666-26.666666z m127.829334 0L751.872 384a26.666667 26.666667 0 0 1 3.754667 53.034667l-3.925334 0.298666-58.496-0.213333v74.794667L741.12 512c13.397333 0 24.490667 9.898667 26.368 22.741333l0.298667 3.925334a26.666667 26.666667 0 0 1-22.741334 26.410666l-3.925333 0.256h-47.914667v47.573334a26.666667 26.666667 0 0 1-22.698666 26.368l-3.925334 0.298666a26.666667 26.666667 0 0 1-26.410666-22.741333l-0.256-3.925333V410.325333A26.666667 26.666667 0 0 1 662.698667 384l3.968-0.256z" p-id="47527"></path></svg>